<mxfile host="Electron" agent="Mozilla/5.0 (Macintosh; Intel Mac OS X 10_15_7) AppleWebKit/537.36 (KHTML, like Gecko) draw.io/26.2.15 Chrome/134.0.6998.205 Electron/35.2.1 Safari/537.36" version="26.2.15">
  <diagram id="bRoZ7jveFpCwDbsLdUjf" name="Page-1">
    <mxGraphModel dx="784" dy="1771" grid="1" gridSize="10" guides="1" tooltips="1" connect="1" arrows="1" fold="1" page="1" pageScale="1" pageWidth="850" pageHeight="1100" background="light-dark(#FFFFFF,#FFFFFF)" math="0" shadow="0" adaptiveColors="auto">
      <root>
        <mxCell id="0" />
        <mxCell id="1" parent="0" />
        <mxCell id="3" value="Created" style="ellipse;whiteSpace=wrap;html=1;labelBackgroundColor=none;fillColor=#182E3E;strokeColor=#FFFFFF;fontColor=#FFFFFF;" parent="1" vertex="1">
          <mxGeometry x="580" y="-159.99999999999991" width="80" height="40" as="geometry" />
        </mxCell>
        <mxCell id="9" style="edgeStyle=none;html=1;entryX=0;entryY=0.5;entryDx=0;entryDy=0;exitX=0;exitY=0.5;exitDx=0;exitDy=0;labelBackgroundColor=none;fontColor=default;strokeColor=#23445D;" parent="1" source="61" target="8" edge="1">
          <mxGeometry relative="1" as="geometry">
            <Array as="points">
              <mxPoint x="400" y="60" />
              <mxPoint x="400" y="260" />
            </Array>
          </mxGeometry>
        </mxCell>
        <mxCell id="62" style="edgeStyle=none;html=1;exitX=0.5;exitY=1;exitDx=0;exitDy=0;entryX=0.5;entryY=0;entryDx=0;entryDy=0;labelBackgroundColor=none;fontColor=default;strokeColor=#23445D;" parent="1" source="5" target="61" edge="1">
          <mxGeometry relative="1" as="geometry" />
        </mxCell>
        <mxCell id="63" value="Both players&lt;div&gt;submit their board&lt;/div&gt;" style="edgeLabel;html=1;align=center;verticalAlign=middle;resizable=0;points=[];labelBackgroundColor=none;fontColor=#FFFFFF;" parent="62" vertex="1" connectable="0">
          <mxGeometry x="-0.0387" relative="1" as="geometry">
            <mxPoint as="offset" />
          </mxGeometry>
        </mxCell>
        <mxCell id="5" value="Full" style="ellipse;whiteSpace=wrap;html=1;labelBackgroundColor=none;fillColor=#182E3E;strokeColor=#FFFFFF;fontColor=#FFFFFF;" parent="1" vertex="1">
          <mxGeometry x="580" y="-59.999999999999915" width="80" height="40" as="geometry" />
        </mxCell>
        <mxCell id="6" style="edgeStyle=none;html=1;labelBackgroundColor=none;fontColor=default;strokeColor=#23445D;" parent="1" source="3" target="5" edge="1">
          <mxGeometry relative="1" as="geometry" />
        </mxCell>
        <mxCell id="7" value="Player 2&lt;div&gt;joins room&lt;/div&gt;" style="edgeLabel;html=1;align=center;verticalAlign=middle;resizable=0;points=[];labelBackgroundColor=none;fontColor=#FFFFFF;" parent="6" vertex="1" connectable="0">
          <mxGeometry x="-0.1242" y="-1" relative="1" as="geometry">
            <mxPoint as="offset" />
          </mxGeometry>
        </mxCell>
        <mxCell id="8" value="&lt;font style=&quot;color: light-dark(rgb(0, 0, 0), rgb(0, 0, 0));&quot;&gt;Shooting&lt;/font&gt;&lt;div&gt;&lt;font style=&quot;color: light-dark(rgb(0, 0, 0), rgb(0, 0, 0));&quot;&gt;Player1&lt;/font&gt;&lt;/div&gt;" style="ellipse;whiteSpace=wrap;html=1;labelBackgroundColor=none;fillColor=#182E3E;strokeColor=#FFFFFF;fontColor=#FFFFFF;" parent="1" vertex="1">
          <mxGeometry x="440" y="240.00000000000009" width="80" height="40" as="geometry" />
        </mxCell>
        <mxCell id="11" value="Answering&lt;div&gt;Player 1&lt;/div&gt;" style="ellipse;whiteSpace=wrap;html=1;labelBackgroundColor=none;fillColor=#182E3E;strokeColor=#FFFFFF;fontColor=#FFFFFF;" parent="1" vertex="1">
          <mxGeometry x="440" y="100.00000000000009" width="80" height="40" as="geometry" />
        </mxCell>
        <mxCell id="12" value="Answering&lt;div&gt;Player 2&lt;/div&gt;" style="ellipse;whiteSpace=wrap;html=1;labelBackgroundColor=none;fillColor=#182E3E;strokeColor=#FFFFFF;fontColor=#FFFFFF;" parent="1" vertex="1">
          <mxGeometry x="720" y="100.00000000000009" width="80" height="40" as="geometry" />
        </mxCell>
        <mxCell id="13" value="Shooting&lt;div&gt;Player2&lt;/div&gt;" style="ellipse;whiteSpace=wrap;html=1;labelBackgroundColor=none;fillColor=#182E3E;strokeColor=#FFFFFF;fontColor=#FFFFFF;" parent="1" vertex="1">
          <mxGeometry x="720" y="240.00000000000009" width="80" height="40" as="geometry" />
        </mxCell>
        <mxCell id="24" value="Dishonesty&lt;div&gt;claimed&lt;div&gt;Player2&lt;/div&gt;&lt;/div&gt;" style="ellipse;whiteSpace=wrap;html=1;labelBackgroundColor=none;fillColor=#182E3E;strokeColor=#FFFFFF;fontColor=#FFFFFF;" parent="1" vertex="1">
          <mxGeometry x="640" y="399.84000000000015" width="80" height="60" as="geometry" />
        </mxCell>
        <mxCell id="25" value="Dishonesty&lt;div&gt;claimed&lt;div&gt;Player1&lt;/div&gt;&lt;/div&gt;" style="ellipse;whiteSpace=wrap;html=1;labelBackgroundColor=none;fillColor=#182E3E;strokeColor=#FFFFFF;fontColor=#FFFFFF;" parent="1" vertex="1">
          <mxGeometry x="520" y="399.84000000000015" width="80" height="60" as="geometry" />
        </mxCell>
        <mxCell id="26" value="" style="endArrow=classic;html=1;exitX=0.798;exitY=0.916;exitDx=0;exitDy=0;entryX=0;entryY=0;entryDx=0;entryDy=0;exitPerimeter=0;labelBackgroundColor=none;fontColor=default;strokeColor=#23445D;" parent="1" source="8" target="24" edge="1">
          <mxGeometry width="50" height="50" relative="1" as="geometry">
            <mxPoint x="570" y="302.84000000000015" as="sourcePoint" />
            <mxPoint x="620" y="352.84000000000015" as="targetPoint" />
          </mxGeometry>
        </mxCell>
        <mxCell id="27" value="Player 1 claims that&lt;div&gt;Player 2 is cheating&lt;/div&gt;" style="edgeLabel;html=1;align=center;verticalAlign=middle;resizable=0;points=[];labelBackgroundColor=none;fontColor=#FFFFFF;" parent="26" vertex="1" connectable="0">
          <mxGeometry x="-0.6391" y="2" relative="1" as="geometry">
            <mxPoint x="21" y="12" as="offset" />
          </mxGeometry>
        </mxCell>
        <mxCell id="28" value="" style="endArrow=classic;html=1;entryX=1;entryY=0;entryDx=0;entryDy=0;exitX=0.217;exitY=0.892;exitDx=0;exitDy=0;exitPerimeter=0;labelBackgroundColor=none;fontColor=default;strokeColor=#23445D;" parent="1" source="13" target="25" edge="1">
          <mxGeometry width="50" height="50" relative="1" as="geometry">
            <mxPoint x="732" y="270" as="sourcePoint" />
            <mxPoint x="744" y="342.84000000000015" as="targetPoint" />
          </mxGeometry>
        </mxCell>
        <mxCell id="29" value="Player 2 claims that&lt;div&gt;Player 1 is cheating&lt;/div&gt;" style="edgeLabel;html=1;align=center;verticalAlign=middle;resizable=0;points=[];labelBackgroundColor=none;fontColor=#FFFFFF;" parent="28" vertex="1" connectable="0">
          <mxGeometry x="-0.6391" y="2" relative="1" as="geometry">
            <mxPoint x="-22" y="9" as="offset" />
          </mxGeometry>
        </mxCell>
        <mxCell id="30" value="" style="endArrow=classic;html=1;exitX=0.5;exitY=1;exitDx=0;exitDy=0;labelBackgroundColor=none;fontColor=default;strokeColor=#23445D;" parent="1" source="11" edge="1">
          <mxGeometry width="50" height="50" relative="1" as="geometry">
            <mxPoint x="570" y="242.84000000000012" as="sourcePoint" />
            <mxPoint x="480" y="240" as="targetPoint" />
          </mxGeometry>
        </mxCell>
        <mxCell id="31" value="Player 1&lt;div&gt;answers&lt;/div&gt;" style="edgeLabel;html=1;align=center;verticalAlign=middle;resizable=0;points=[];labelBackgroundColor=none;fontColor=#FFFFFF;" parent="30" vertex="1" connectable="0">
          <mxGeometry x="-0.0207" relative="1" as="geometry">
            <mxPoint as="offset" />
          </mxGeometry>
        </mxCell>
        <mxCell id="32" value="" style="endArrow=classic;html=1;labelBackgroundColor=none;fontColor=default;strokeColor=#23445D;" parent="1" edge="1">
          <mxGeometry width="50" height="50" relative="1" as="geometry">
            <mxPoint x="760" y="140" as="sourcePoint" />
            <mxPoint x="760" y="240" as="targetPoint" />
          </mxGeometry>
        </mxCell>
        <mxCell id="33" value="Player 2&lt;div&gt;answers&lt;/div&gt;" style="edgeLabel;html=1;align=center;verticalAlign=middle;resizable=0;points=[];fontSize=11;labelBackgroundColor=none;fontColor=#FFFFFF;" parent="32" vertex="1" connectable="0">
          <mxGeometry x="-0.0004" relative="1" as="geometry">
            <mxPoint as="offset" />
          </mxGeometry>
        </mxCell>
        <mxCell id="34" value="" style="endArrow=classic;html=1;exitX=1;exitY=0.5;exitDx=0;exitDy=0;entryX=0;entryY=0.5;entryDx=0;entryDy=0;labelBackgroundColor=none;fontColor=default;strokeColor=#23445D;" parent="1" source="8" target="12" edge="1">
          <mxGeometry width="50" height="50" relative="1" as="geometry">
            <mxPoint x="630" y="199.84000000000012" as="sourcePoint" />
            <mxPoint x="680" y="249.84000000000012" as="targetPoint" />
            <Array as="points">
              <mxPoint x="560" y="259.84000000000015" />
              <mxPoint x="680" y="119.84000000000012" />
            </Array>
          </mxGeometry>
        </mxCell>
        <mxCell id="35" value="Player 1 shoots" style="edgeLabel;html=1;align=center;verticalAlign=middle;resizable=0;points=[];labelBackgroundColor=none;fontColor=#FFFFFF;" parent="34" vertex="1" connectable="0">
          <mxGeometry x="-0.3442" relative="1" as="geometry">
            <mxPoint x="-30" y="15" as="offset" />
          </mxGeometry>
        </mxCell>
        <mxCell id="37" value="" style="endArrow=classic;html=1;exitX=0;exitY=0.5;exitDx=0;exitDy=0;entryX=1;entryY=0.5;entryDx=0;entryDy=0;labelBackgroundColor=none;fontColor=default;strokeColor=#23445D;" parent="1" source="13" target="11" edge="1">
          <mxGeometry width="50" height="50" relative="1" as="geometry">
            <mxPoint x="630" y="199.84000000000012" as="sourcePoint" />
            <mxPoint x="680" y="249.84000000000012" as="targetPoint" />
            <Array as="points">
              <mxPoint x="680" y="259.84000000000015" />
              <mxPoint x="560" y="119.84000000000012" />
            </Array>
          </mxGeometry>
        </mxCell>
        <mxCell id="38" value="Player 2 shoots" style="edgeLabel;html=1;align=center;verticalAlign=middle;resizable=0;points=[];labelBackgroundColor=none;fontColor=#FFFFFF;" parent="37" vertex="1" connectable="0">
          <mxGeometry x="-0.5373" y="1" relative="1" as="geometry">
            <mxPoint x="13" y="-5" as="offset" />
          </mxGeometry>
        </mxCell>
        <mxCell id="39" value="Won&lt;div&gt;Player1&lt;/div&gt;" style="ellipse;whiteSpace=wrap;html=1;labelBackgroundColor=none;fillColor=#182E3E;strokeColor=#FFFFFF;fontColor=#FFFFFF;" parent="1" vertex="1">
          <mxGeometry x="360" y="409.84000000000015" width="80" height="40" as="geometry" />
        </mxCell>
        <mxCell id="40" value="Won&lt;div&gt;Player2&lt;/div&gt;" style="ellipse;whiteSpace=wrap;html=1;labelBackgroundColor=none;fillColor=#182E3E;strokeColor=#FFFFFF;fontColor=#FFFFFF;" parent="1" vertex="1">
          <mxGeometry x="800" y="409.84000000000015" width="80" height="40" as="geometry" />
        </mxCell>
        <mxCell id="41" value="" style="endArrow=classic;html=1;exitX=0.5;exitY=1;exitDx=0;exitDy=0;labelBackgroundColor=none;fontColor=default;strokeColor=#23445D;" parent="1" source="8" edge="1">
          <mxGeometry width="50" height="50" relative="1" as="geometry">
            <mxPoint x="560" y="219.84000000000012" as="sourcePoint" />
            <mxPoint x="400" y="410" as="targetPoint" />
          </mxGeometry>
        </mxCell>
        <mxCell id="43" value="Player1&lt;div&gt;proved victory&lt;/div&gt;" style="edgeLabel;html=1;align=center;verticalAlign=middle;resizable=0;points=[];labelBackgroundColor=none;fontColor=#FFFFFF;" parent="41" vertex="1" connectable="0">
          <mxGeometry x="-0.1128" relative="1" as="geometry">
            <mxPoint as="offset" />
          </mxGeometry>
        </mxCell>
        <mxCell id="42" value="" style="endArrow=classic;html=1;exitX=0.5;exitY=1;exitDx=0;exitDy=0;entryX=0.5;entryY=0;entryDx=0;entryDy=0;labelBackgroundColor=none;fontColor=default;strokeColor=#23445D;" parent="1" source="13" target="40" edge="1">
          <mxGeometry width="50" height="50" relative="1" as="geometry">
            <mxPoint x="560" y="219.84000000000012" as="sourcePoint" />
            <mxPoint x="610" y="269.84000000000015" as="targetPoint" />
          </mxGeometry>
        </mxCell>
        <mxCell id="44" value="Player 2&lt;div&gt;proved victory&lt;/div&gt;" style="edgeLabel;html=1;align=center;verticalAlign=middle;resizable=0;points=[];labelBackgroundColor=none;fontColor=#FFFFFF;" parent="42" vertex="1" connectable="0">
          <mxGeometry x="-0.0412" relative="1" as="geometry">
            <mxPoint as="offset" />
          </mxGeometry>
        </mxCell>
        <mxCell id="45" value="" style="endArrow=classic;html=1;exitX=0;exitY=0.5;exitDx=0;exitDy=0;entryX=1;entryY=0.5;entryDx=0;entryDy=0;labelBackgroundColor=none;fontColor=default;strokeColor=#23445D;" parent="1" source="25" target="39" edge="1">
          <mxGeometry width="50" height="50" relative="1" as="geometry">
            <mxPoint x="560" y="229.84000000000012" as="sourcePoint" />
            <mxPoint x="610" y="279.84000000000015" as="targetPoint" />
          </mxGeometry>
        </mxCell>
        <mxCell id="46" value="Player1&lt;div&gt;proved honesty&lt;/div&gt;" style="edgeLabel;html=1;align=center;verticalAlign=middle;resizable=0;points=[];labelBackgroundColor=none;fontColor=#FFFFFF;" parent="45" vertex="1" connectable="0">
          <mxGeometry x="0.1499" relative="1" as="geometry">
            <mxPoint x="6" y="20" as="offset" />
          </mxGeometry>
        </mxCell>
        <mxCell id="47" value="" style="endArrow=classic;html=1;exitX=1;exitY=0.5;exitDx=0;exitDy=0;entryX=0;entryY=0.5;entryDx=0;entryDy=0;labelBackgroundColor=none;fontColor=default;strokeColor=#23445D;" parent="1" source="24" target="40" edge="1">
          <mxGeometry width="50" height="50" relative="1" as="geometry">
            <mxPoint x="590" y="259.84000000000015" as="sourcePoint" />
            <mxPoint x="640" y="309.84000000000015" as="targetPoint" />
          </mxGeometry>
        </mxCell>
        <mxCell id="48" value="Player2&lt;div&gt;proved honesty&lt;/div&gt;" style="edgeLabel;html=1;align=center;verticalAlign=middle;resizable=0;points=[];labelBackgroundColor=none;fontColor=#FFFFFF;" parent="47" vertex="1" connectable="0">
          <mxGeometry x="-0.083" y="-1" relative="1" as="geometry">
            <mxPoint x="-1" y="19" as="offset" />
          </mxGeometry>
        </mxCell>
        <mxCell id="54" value="Finished" style="ellipse;whiteSpace=wrap;html=1;labelBackgroundColor=none;fillColor=#182E3E;strokeColor=#FFFFFF;fontColor=#FFFFFF;" parent="1" vertex="1">
          <mxGeometry x="580" y="509.84000000000015" width="80" height="40" as="geometry" />
        </mxCell>
        <mxCell id="55" value="" style="endArrow=classic;html=1;entryX=0;entryY=0.5;entryDx=0;entryDy=0;labelBackgroundColor=none;fontColor=default;strokeColor=#23445D;" parent="1" target="54" edge="1">
          <mxGeometry width="50" height="50" relative="1" as="geometry">
            <mxPoint x="400" y="450" as="sourcePoint" />
            <mxPoint x="670" y="399.84000000000015" as="targetPoint" />
            <Array as="points">
              <mxPoint x="400" y="529.8400000000001" />
            </Array>
          </mxGeometry>
        </mxCell>
        <mxCell id="57" value="Player1&lt;div&gt;received prize&lt;/div&gt;" style="edgeLabel;html=1;align=center;verticalAlign=middle;resizable=0;points=[];labelBackgroundColor=none;fontColor=#FFFFFF;" parent="55" vertex="1" connectable="0">
          <mxGeometry x="-0.7876" relative="1" as="geometry">
            <mxPoint y="12" as="offset" />
          </mxGeometry>
        </mxCell>
        <mxCell id="56" value="" style="endArrow=classic;html=1;entryX=1;entryY=0.5;entryDx=0;entryDy=0;labelBackgroundColor=none;fontColor=default;strokeColor=#23445D;" parent="1" target="54" edge="1">
          <mxGeometry width="50" height="50" relative="1" as="geometry">
            <mxPoint x="840" y="450" as="sourcePoint" />
            <mxPoint x="670" y="399.84000000000015" as="targetPoint" />
            <Array as="points">
              <mxPoint x="840" y="529.8400000000001" />
            </Array>
          </mxGeometry>
        </mxCell>
        <mxCell id="58" value="Player2&lt;div&gt;received prize&lt;/div&gt;" style="edgeLabel;html=1;align=center;verticalAlign=middle;resizable=0;points=[];labelBackgroundColor=none;fontColor=#FFFFFF;" parent="56" vertex="1" connectable="0">
          <mxGeometry x="-0.7047" y="-3" relative="1" as="geometry">
            <mxPoint as="offset" />
          </mxGeometry>
        </mxCell>
        <mxCell id="61" value="" style="rhombus;whiteSpace=wrap;html=1;labelBackgroundColor=none;fillColor=#182E3E;strokeColor=#FFFFFF;fontColor=#FFFFFF;" parent="1" vertex="1">
          <mxGeometry x="610" y="50" width="20" height="20" as="geometry" />
        </mxCell>
        <mxCell id="64" value="" style="endArrow=classic;html=1;exitX=1;exitY=0.5;exitDx=0;exitDy=0;entryX=1;entryY=0.5;entryDx=0;entryDy=0;labelBackgroundColor=none;fontColor=default;strokeColor=#23445D;" parent="1" source="61" target="13" edge="1">
          <mxGeometry width="50" height="50" relative="1" as="geometry">
            <mxPoint x="580" y="140" as="sourcePoint" />
            <mxPoint x="630" y="90" as="targetPoint" />
            <Array as="points">
              <mxPoint x="840" y="60" />
              <mxPoint x="840" y="260" />
            </Array>
          </mxGeometry>
        </mxCell>
        <mxCell id="66" style="edgeStyle=none;html=1;exitX=0.5;exitY=1;exitDx=0;exitDy=0;entryX=0.5;entryY=0;entryDx=0;entryDy=0;labelBackgroundColor=none;fontColor=default;strokeColor=#23445D;" parent="1" source="65" target="3" edge="1">
          <mxGeometry relative="1" as="geometry" />
        </mxCell>
        <mxCell id="67" value="Player 1&lt;div&gt;creates room&lt;/div&gt;" style="edgeLabel;html=1;align=center;verticalAlign=middle;resizable=0;points=[];labelBackgroundColor=none;fontColor=#FFFFFF;" parent="66" vertex="1" connectable="0">
          <mxGeometry x="-0.241" y="1" relative="1" as="geometry">
            <mxPoint as="offset" />
          </mxGeometry>
        </mxCell>
        <mxCell id="65" value="NonExistent" style="ellipse;whiteSpace=wrap;html=1;labelBackgroundColor=none;fillColor=#182E3E;strokeColor=#FFFFFF;fontColor=#FFFFFF;" parent="1" vertex="1">
          <mxGeometry x="580" y="-259.9999999999999" width="80" height="40" as="geometry" />
        </mxCell>
      </root>
    </mxGraphModel>
  </diagram>
</mxfile>
